<svg width="95" height="103" viewBox="0 0 95 103" fill="none" xmlns="http://www.w3.org/2000/svg">
<path d="M5.30352 85.62C5.33352 85.07 5.38352 84.57 5.47352 84.08L14.0035 85.47C15.0035 85.62 16.0035 85.73 17.1135 85.86L18.7435 86.05C19.8235 86.19 20.9135 85.83 21.7235 85.07C22.5235 84.32 22.9435 83.25 22.8735 82.15C22.8535 81.8 22.8635 81.45 22.9035 81.11C23.0935 79.64 23.8235 78.31 24.9735 77.37C25.5235 76.93 26.1235 76.6 26.7935 76.4C27.3335 76.23 28.0435 76.17 28.9035 76.2C31.7135 76.39 33.8935 79.04 33.7735 82.11C33.7335 82.91 33.7735 83.73 33.8835 84.54C34.1235 86.24 35.4835 87.54 37.2035 87.71C38.4535 87.83 39.6535 87.83 40.8535 87.84H41.8835L50.8335 87.91L54.5135 87.69C55.0935 90.47 56.6035 92.97 58.8235 94.8C61.0635 96.7 64.0135 97.73 67.1235 97.73C67.6335 97.73 68.1635 97.7 68.6835 97.64C72.1835 97.23 75.4035 95.47 77.5135 92.83C79.3135 90.64 80.2735 87.78 80.2435 84.87L85.8035 83.95C87.0535 83.76 88.2935 83.52 89.4335 83.28C89.6235 84.03 89.7335 84.82 89.7835 85.72C89.7935 85.96 89.7935 86.21 89.7835 86.45C89.7735 87.09 89.6835 87.74 89.5335 88.4C89.2735 89.55 88.8135 90.71 88.1335 91.92C88.0735 92.03 80.5935 102.65 50.1335 102.57C47.1635 102.62 44.9635 102.57 44.9335 102.57H44.5335C14.2535 102.57 7.00352 92.04 6.91352 91.86C6.10352 90.42 5.58352 88.96 5.38352 87.54C5.29352 86.92 5.26352 86.31 5.30352 85.72V85.62Z" fill="white"/>
<path d="M15.5234 60.81C16.3734 56.11 18.3534 51.5899 21.2534 47.7399L21.5334 47.3699L0.233382 28.3299C0.00338235 28.1299 -0.0566176 27.82 0.0533824 27.63L22.4234 0.939957C22.5934 0.659957 22.9034 0.609969 23.1234 0.639969C23.2234 0.659969 23.5734 0.749959 23.6534 1.12996L32.3134 38.51L32.8734 38.2399C37.1334 36.2099 41.6934 35.19 46.4434 35.19H48.6334C52.9034 35.19 57.0534 36.0199 60.9534 37.6799L61.8634 38.06L61.6334 37.1C61.3134 35.79 61.1534 34.46 61.1534 33.14C61.1534 23.91 68.6634 16.3999 77.8934 16.3999C87.1234 16.3999 94.6334 23.91 94.6334 33.14C94.6334 42.37 87.1234 49.8699 77.8934 49.8699C77.3234 49.8699 76.7534 49.84 76.1834 49.79L75.2034 49.69L75.7034 50.54C77.6034 53.73 78.8934 57.18 79.5634 60.85L79.5934 61.01C81.2234 69.78 82.6234 72.0199 83.7434 73.8299L84.0034 74.23C84.0534 74.3 85.0334 75.57 85.7134 76.45C85.3534 76.52 85.0034 76.59 84.6434 76.64L75.3734 78.17C74.2834 78.35 73.3334 78.9999 72.7834 79.9599C72.2234 80.9199 72.1234 82.06 72.5034 83.1C72.6334 83.46 72.7334 83.83 72.7834 84.2C73.0034 85.65 72.6234 87.1299 71.7634 88.1799C70.8334 89.34 69.4034 90.11 67.8334 90.29C66.1934 90.48 64.6834 90.0699 63.5734 89.1199C62.4334 88.1799 61.7534 86.87 61.6534 85.42C61.6334 85.04 61.6434 84.66 61.6934 84.28C61.8534 83.18 61.5134 82.08 60.7534 81.26C60.0334 80.47 58.9934 80.05 57.8034 80.07L50.6334 80.51L41.0934 80.44C40.4134 74.23 35.4434 69.22 29.3134 68.81C27.4534 68.7299 25.9534 68.8999 24.5834 69.34C23.0334 69.82 21.5934 70.59 20.3034 71.64C18.2034 73.35 16.6834 75.6799 15.9534 78.2699C15.6634 78.2299 15.3834 78.2 15.1034 78.16L8.83338 77.1499C9.26338 76.5999 11.0034 74.3199 11.1134 74.1799L11.3334 73.8299C12.4534 72.0199 13.8534 69.78 15.4934 60.95L15.5234 60.81Z" fill="white"/>
</svg>
