<svg width="138" height="45" viewBox="0 0 138 45" fill="none" xmlns="http://www.w3.org/2000/svg">
<path d="M38.9134 16.88H27.1034L38.9134 29.22V33.47H14.9434V42.66H0.753418V2.35999H38.9134V16.88Z" fill="white"/>
<path d="M118.013 11.61L98.6733 1.51001V43.3H121.903V32.12H124.873V43.3H129.093V32.12H132.063V43.3H137.353V1.51001L118.013 11.61Z" fill="white"/>
<path d="M91.1635 22.4C91.1635 34.78 81.1335 44.81 68.7535 44.81C64.6635 44.81 60.8335 43.71 57.5335 41.8C55.3735 40.55 53.4435 38.95 51.8235 37.08C48.5635 33.32 46.5335 28.45 46.3635 23.12C46.3635 22.88 46.3535 22.64 46.3535 22.4C46.3535 20.96 46.4935 19.55 46.7535 18.18C48.7235 7.83 57.8235 0 68.7535 0C81.1335 0 91.1635 10.03 91.1635 22.4Z" fill="white"/>
</svg>
