<svg xmlns="http://www.w3.org/2000/svg" width="297" height="210" viewBox="0 0 297 210"><rect width="297" height="210" fill="white"></rect><rect width="297" height="210" fill="#0200af" opacity="0.8"></rect><defs><g id="cul2_3"><path d="M17.396 0H0V4.4957H17.396V0Z"></path><path d="M36.9999 0H35.9814V4.4957H36.9999V0Z"></path><path d="M18.5033 4.50439H17.3892V9.00009H18.5033V4.50439Z"></path><path d="M35.9812 4.50439H33.2266V9.00009H35.9812V4.50439Z"></path><path d="M21.0735 9.0083H18.5034V13.504H21.0735V9.0083Z"></path><path d="M33.2269 9.0083H31.9761V13.504H33.2269V9.0083Z"></path><path d="M31.9756 13.5044H21.0801V18.0001H31.9756V13.5044Z"></path></g><g id="cul2_3_upsideDown"><use href="#cul2_3" transform-origin="18.5 9" transform="scale(1, -1)"></use></g></defs><defs><pattern id="cul2_3_p" width="74" height="18" patternUnits="userSpaceOnUse"><use href="#cul2_3" y="-9" opacity="0.5"></use><use href="#cul2_3"></use><use href="#cul2_3" y="9"></use><use href="#cul2_3" y="18" opacity="0.5"></use><use href="#cul2_3" y="27"></use><use href="#cul2_3_upsideDown" x="37" y="-13.5" opacity="0.5"></use><use href="#cul2_3_upsideDown" x="37" y="-4.5"></use><use href="#cul2_3_upsideDown" x="37" y="4.5"></use><use href="#cul2_3_upsideDown" x="37" y="13.5" opacity="0.5"></use><use href="#cul2_3_upsideDown" x="37" y="22.5"></use><use href="#cul2_3_upsideDown" x="37" y="31.5"></use></pattern></defs><rect width="297" height="210" fill="url(#cul2_3_p)"></rect></svg>