<svg xmlns="http://www.w3.org/2000/svg" width="297" height="210" viewBox="0 0 297 210"><rect width="297" height="210" fill="white"></rect><rect width="297" height="210" fill="#dd006f" opacity="0.8"></rect><defs><g id="exp2_3" transform="translate(13 0) 
                  rotate(90)"><g clip-path="url(#clip0_331_2433)"><path opacity="0.25" d="M12.4687 6.5C12.4687 8.61415 11.5001 10.492 10 11.6788C11.0467 12.5067 12.351 13 13.7656 13C17.2092 13 20 10.0903 20 6.5C20 2.9097 17.2092 0 13.7656 0C12.351 0 11.0455 0.492052 10 1.32118C11.4988 2.50805 12.4687 4.38585 12.4687 6.5Z"></path><path opacity="0.25" d="M6.23436 13C7.64895 13 8.95454 12.5079 10 11.6788C8.50118 10.492 7.53128 8.61415 7.53128 6.5C7.53128 4.38585 8.49994 2.50805 10 1.32118C8.9533 0.492052 7.64895 0 6.23436 0C2.79078 0 0 2.9097 0 6.5C0 10.0903 2.79078 13 6.23436 13Z"></path><path d="M7.53271 6.50011C7.53271 8.61426 8.50138 10.4921 10.0014 11.6789C11.5003 10.4921 12.4702 8.61426 12.4702 6.50011C12.4702 4.38596 11.5015 2.50816 10.0014 1.32129C8.50261 2.50816 7.53271 4.38596 7.53271 6.50011Z"></path></g><defs><clipPath id="clip0_331_2433"><rect width="20" height="13"></rect></clipPath></defs></g><pattern id="exp2_3_p" width="46" height="40" patternUnits="userSpaceOnUse"><use href="#exp2_3"></use><use href="#exp2_3" x="23" y="20"></use></pattern></defs><rect width="297" height="210" fill="url(#exp2_3_p)"></rect></svg>