<svg xmlns="http://www.w3.org/2000/svg" width="297" height="210" viewBox="0 0 297 210"><rect width="297" height="210" fill="white"></rect><rect width="297" height="210" fill="#ff00bc" opacity="0.8"></rect><defs><g id="exp1_2"><path d="M 10 0   L 30 0   L 30 20   A 20 20 0 0 1 10 0"></path><path d="M 0 10   L 0 30   L 20 30   A 20 20 0 0 0 0 10"></path></g></defs><g><use href="#exp1_2" x="0" y="0" transform-origin="15 15" transform="scale(-1, 1)"></use></g><g><use href="#exp1_2" x="0" y="30" transform-origin="15 45" transform="scale(1, 1)"></use></g><g><use href="#exp1_2" x="0" y="60" transform-origin="15 75" transform="scale(-1, 1)"></use></g><g><use href="#exp1_2" x="0" y="90" transform-origin="15 105" transform="scale(1, 1)"></use></g><g><use href="#exp1_2" x="0" y="120" transform-origin="15 135" transform="scale(1, 1)"></use></g><g><use href="#exp1_2" x="0" y="150" transform-origin="15 165" transform="scale(1, 1)"></use></g><g><use href="#exp1_2" x="0" y="180" transform-origin="15 195" transform="scale(1, 1)"></use></g><g><use href="#exp1_2" x="30" y="0" transform-origin="45 15" transform="scale(-1, 1)"></use></g><g><use href="#exp1_2" x="30" y="30" transform-origin="45 45" transform="scale(1, 1)"></use></g><g><use href="#exp1_2" x="30" y="60" transform-origin="45 75" transform="scale(1, 1)"></use></g><g><use href="#exp1_2" x="30" y="90" transform-origin="45 105" transform="scale(1, 1)"></use></g><g><use href="#exp1_2" x="30" y="120" transform-origin="45 135" transform="scale(-1, 1)"></use></g><g><use href="#exp1_2" x="30" y="150" transform-origin="45 165" transform="scale(1, 1)"></use></g><g><use href="#exp1_2" x="30" y="180" transform-origin="45 195" transform="scale(1, 1)"></use></g><g><use href="#exp1_2" x="60" y="0" transform-origin="75 15" transform="scale(1, 1)"></use></g><g><use href="#exp1_2" x="60" y="30" transform-origin="75 45" transform="scale(-1, 1)"></use></g><g><use href="#exp1_2" x="60" y="60" transform-origin="75 75" transform="scale(-1, 1)"></use></g><g><use href="#exp1_2" x="60" y="90" transform-origin="75 105" transform="scale(1, 1)"></use></g><g><use href="#exp1_2" x="60" y="120" transform-origin="75 135" transform="scale(-1, 1)"></use></g><g><use href="#exp1_2" x="60" y="150" transform-origin="75 165" transform="scale(-1, 1)"></use></g><g><use href="#exp1_2" x="60" y="180" transform-origin="75 195" transform="scale(-1, 1)"></use></g><g><use href="#exp1_2" x="90" y="0" transform-origin="105 15" transform="scale(1, 1)"></use></g><g><use href="#exp1_2" x="90" y="30" transform-origin="105 45" transform="scale(-1, 1)"></use></g><g><use href="#exp1_2" x="90" y="60" transform-origin="105 75" transform="scale(-1, 1)"></use></g><g><use href="#exp1_2" x="90" y="90" transform-origin="105 105" transform="scale(-1, 1)"></use></g><g><use href="#exp1_2" x="90" y="120" transform-origin="105 135" transform="scale(-1, 1)"></use></g><g><use href="#exp1_2" x="90" y="150" transform-origin="105 165" transform="scale(-1, 1)"></use></g><g><use href="#exp1_2" x="90" y="180" transform-origin="105 195" transform="scale(1, 1)"></use></g><g><use href="#exp1_2" x="120" y="0" transform-origin="135 15" transform="scale(-1, 1)"></use></g><g><use href="#exp1_2" x="120" y="30" transform-origin="135 45" transform="scale(1, 1)"></use></g><g><use href="#exp1_2" x="120" y="60" transform-origin="135 75" transform="scale(1, 1)"></use></g><g><use href="#exp1_2" x="120" y="90" transform-origin="135 105" transform="scale(1, 1)"></use></g><g><use href="#exp1_2" x="120" y="120" transform-origin="135 135" transform="scale(1, 1)"></use></g><g><use href="#exp1_2" x="120" y="150" transform-origin="135 165" transform="scale(1, 1)"></use></g><g><use href="#exp1_2" x="120" y="180" transform-origin="135 195" transform="scale(1, 1)"></use></g><g><use href="#exp1_2" x="150" y="0" transform-origin="165 15" transform="scale(1, 1)"></use></g><g><use href="#exp1_2" x="150" y="30" transform-origin="165 45" transform="scale(1, 1)"></use></g><g><use href="#exp1_2" x="150" y="60" transform-origin="165 75" transform="scale(-1, 1)"></use></g><g><use href="#exp1_2" x="150" y="90" transform-origin="165 105" transform="scale(-1, 1)"></use></g><g><use href="#exp1_2" x="150" y="120" transform-origin="165 135" transform="scale(-1, 1)"></use></g><g><use href="#exp1_2" x="150" y="150" transform-origin="165 165" transform="scale(1, 1)"></use></g><g><use href="#exp1_2" x="150" y="180" transform-origin="165 195" transform="scale(-1, 1)"></use></g><g><use href="#exp1_2" x="180" y="0" transform-origin="195 15" transform="scale(1, 1)"></use></g><g><use href="#exp1_2" x="180" y="30" transform-origin="195 45" transform="scale(-1, 1)"></use></g><g><use href="#exp1_2" x="180" y="60" transform-origin="195 75" transform="scale(-1, 1)"></use></g><g><use href="#exp1_2" x="180" y="90" transform-origin="195 105" transform="scale(-1, 1)"></use></g><g><use href="#exp1_2" x="180" y="120" transform-origin="195 135" transform="scale(1, 1)"></use></g><g><use href="#exp1_2" x="180" y="150" transform-origin="195 165" transform="scale(-1, 1)"></use></g><g><use href="#exp1_2" x="180" y="180" transform-origin="195 195" transform="scale(1, 1)"></use></g><g><use href="#exp1_2" x="210" y="0" transform-origin="225 15" transform="scale(-1, 1)"></use></g><g><use href="#exp1_2" x="210" y="30" transform-origin="225 45" transform="scale(1, 1)"></use></g><g><use href="#exp1_2" x="210" y="60" transform-origin="225 75" transform="scale(1, 1)"></use></g><g><use href="#exp1_2" x="210" y="90" transform-origin="225 105" transform="scale(1, 1)"></use></g><g><use href="#exp1_2" x="210" y="120" transform-origin="225 135" transform="scale(-1, 1)"></use></g><g><use href="#exp1_2" x="210" y="150" transform-origin="225 165" transform="scale(1, 1)"></use></g><g><use href="#exp1_2" x="210" y="180" transform-origin="225 195" transform="scale(1, 1)"></use></g><g><use href="#exp1_2" x="240" y="0" transform-origin="255 15" transform="scale(-1, 1)"></use></g><g><use href="#exp1_2" x="240" y="30" transform-origin="255 45" transform="scale(-1, 1)"></use></g><g><use href="#exp1_2" x="240" y="60" transform-origin="255 75" transform="scale(-1, 1)"></use></g><g><use href="#exp1_2" x="240" y="90" transform-origin="255 105" transform="scale(1, 1)"></use></g><g><use href="#exp1_2" x="240" y="120" transform-origin="255 135" transform="scale(-1, 1)"></use></g><g><use href="#exp1_2" x="240" y="150" transform-origin="255 165" transform="scale(-1, 1)"></use></g><g><use href="#exp1_2" x="240" y="180" transform-origin="255 195" transform="scale(1, 1)"></use></g><g><use href="#exp1_2" x="270" y="0" transform-origin="285 15" transform="scale(-1, 1)"></use></g><g><use href="#exp1_2" x="270" y="30" transform-origin="285 45" transform="scale(-1, 1)"></use></g><g><use href="#exp1_2" x="270" y="60" transform-origin="285 75" transform="scale(-1, 1)"></use></g><g><use href="#exp1_2" x="270" y="90" transform-origin="285 105" transform="scale(1, 1)"></use></g><g><use href="#exp1_2" x="270" y="120" transform-origin="285 135" transform="scale(1, 1)"></use></g><g><use href="#exp1_2" x="270" y="150" transform-origin="285 165" transform="scale(1, 1)"></use></g><g><use href="#exp1_2" x="270" y="180" transform-origin="285 195" transform="scale(1, 1)"></use></g></svg>