<svg xmlns="http://www.w3.org/2000/svg" width="297" height="210" viewBox="0 0 297 210"><rect width="297" height="210" fill="white"></rect><rect width="297" height="210" fill="#00c518" opacity="0.8"></rect><defs><g id="per2_1"><path d="M20 10.0008L18.1952 13.3939L17.0717 17.0703L13.395 18.1954L10 20L6.60498 18.1954L2.92827 17.0703L1.80478 13.3939L0 10.0008L1.80478 6.60607L2.92827 2.92966L6.60498 1.80463L10 0L13.395 1.80463L17.0717 2.92966L18.1952 6.60607L20 10.0008Z"></path></g></defs><defs><g id="per2_1_unit"><use href="#per2_1" x="0" y="0"></use><use href="#per2_1" x="20" y="0"></use><use href="#per2_1" x="40" y="0"></use><use href="#per2_1" x="60" y="0"></use><use href="#per2_1" x="70" y="0"></use><use href="#per2_1" x="80" y="0"></use><use href="#per2_1" x="40" y="10"></use><use href="#per2_1" x="60" y="10"></use><use href="#per2_1" x="70" y="10"></use><use href="#per2_1" x="80" y="10"></use><use href="#per2_1" x="0" y="20"></use><use href="#per2_1" x="20" y="20"></use><use href="#per2_1" x="60" y="20"></use><use href="#per2_1" x="70" y="20"></use><use href="#per2_1" x="80" y="20"></use><use href="#per2_1" x="0" y="30"></use><use href="#per2_1" x="20" y="30"></use><use href="#per2_1" x="40" y="30"></use><use href="#per2_1" x="0" y="40"></use><use href="#per2_1" x="20" y="40"></use><use href="#per2_1" x="40" y="40"></use><use href="#per2_1" x="60" y="40"></use><use href="#per2_1" x="70" y="40"></use><use href="#per2_1" x="80" y="40"></use><use href="#per2_1" x="0" y="60"></use><use href="#per2_1" x="20" y="60"></use><use href="#per2_1" x="30" y="60"></use><use href="#per2_1" x="50" y="60"></use><use href="#per2_1" x="70" y="60"></use><use href="#per2_1" x="80" y="60"></use><use href="#per2_1" x="0" y="80"></use><use href="#per2_1" x="20" y="80"></use><use href="#per2_1" x="30" y="80"></use><use href="#per2_1" x="50" y="80"></use><use href="#per2_1" x="70" y="80"></use><use href="#per2_1" x="80" y="80"></use></g></defs><g x="0" y="0" transform="translate(0 0)"><use href="#per2_1_unit" transform-origin="50 50" transform="rotate(270)"></use></g><g x="100" y="0" transform="translate(100 0)"><use href="#per2_1_unit" transform-origin="50 50" transform="rotate(0)"></use></g><g x="200" y="0" transform="translate(200 0)"><use href="#per2_1_unit" transform-origin="50 50" transform="rotate(0)"></use></g><g x="0" y="100" transform="translate(0 100)"><use href="#per2_1_unit" transform-origin="50 50" transform="rotate(90)"></use></g><g x="100" y="100" transform="translate(100 100)"><use href="#per2_1_unit" transform-origin="50 50" transform="rotate(0)"></use></g><g x="200" y="100" transform="translate(200 100)"><use href="#per2_1_unit" transform-origin="50 50" transform="rotate(0)"></use></g><g x="0" y="200" transform="translate(0 200)"><use href="#per2_1_unit" transform-origin="50 50" transform="rotate(90)"></use></g><g x="100" y="200" transform="translate(100 200)"><use href="#per2_1_unit" transform-origin="50 50" transform="rotate(270)"></use></g><g x="200" y="200" transform="translate(200 200)"><use href="#per2_1_unit" transform-origin="50 50" transform="rotate(270)"></use></g></svg>