<svg xmlns="http://www.w3.org/2000/svg" width="297" height="210" viewBox="0 0 297 210"><rect width="297" height="210" fill="white"></rect><rect width="297" height="210" fill="#ff0016" opacity="0.8"></rect><defs><g id="exp2_2"><path opacity="0.4" d="M15.452 8.59434C16.253 8.73799 17.0185 9.07767 17.6709 9.56437C18.2083 9.15879 18.6747 8.64335 19.0482 8.03328C20.0537 6.39403 20.0588 4.35427 19.0617 2.71164C18.8234 2.31957 18.5446 1.96299 18.2319 1.64866C16.1854 -0.397862 12.8545 -0.397862 10.808 1.64866C10.6322 1.82442 10.47 2.01369 10.3213 2.2131C10.8097 2.85866 11.1426 3.60731 11.2879 4.41848C11.6648 6.54444 13.326 8.20903 15.4503 8.59096L15.452 8.59434Z"></path><path opacity="0.4" d="M5.19378 10.5277C4.39444 10.384 3.62889 10.046 2.97657 9.55933C2.27187 10.0917 1.68883 10.8065 1.27987 11.6684C0.659655 12.9764 0.647827 14.4737 1.24438 15.7766C1.54181 16.4256 1.93388 16.9968 2.40875 17.4717C3.40075 18.4636 4.71891 19.0095 6.11987 19.0095C7.52253 19.0095 8.84069 18.4636 9.83099 17.4717C10.0067 17.2959 10.1673 17.1066 10.316 16.9089C9.82761 16.2633 9.49807 15.5147 9.35443 14.7018C8.97757 12.5759 7.31635 10.9096 5.19209 10.5277H5.19378Z"></path><path opacity="0.4" d="M9.35466 4.43208C9.49831 3.63274 9.8363 2.86719 10.323 2.21487C9.79236 1.51185 9.07751 0.928823 8.21564 0.519856C6.90762 -0.100354 5.41033 -0.112182 4.10738 0.484369C3.45844 0.781799 2.88724 1.17387 2.41236 1.64874C1.42036 2.64074 0.874512 3.9589 0.874512 5.35986C0.874512 6.76252 1.42036 8.08068 2.41236 9.07098C2.58812 9.24674 2.77739 9.40897 2.97849 9.55769C3.62405 9.0693 4.3727 8.73638 5.18387 8.59273C7.30983 8.21587 8.97442 6.55465 9.35635 4.43039L9.35466 4.43208Z"></path><path opacity="0.4" d="M18.2334 10.0495C18.0576 9.87371 17.8683 9.71317 17.6706 9.56445C17.0234 10.0528 16.2764 10.3841 15.4635 10.5277C13.3376 10.9046 11.6713 12.5658 11.2894 14.6901C11.1457 15.4911 10.806 16.2566 10.3193 16.909C10.7249 17.4464 11.2404 17.9145 11.8504 18.288C13.4897 19.2935 15.5294 19.2985 17.1721 18.3015C17.5641 18.0632 17.9207 17.7843 18.235 17.4717C20.2816 15.4252 20.2816 12.0943 18.235 10.0478L18.2334 10.0495Z"></path><path d="M15.4636 10.5277C16.2764 10.3841 17.0251 10.0528 17.6706 9.56444C17.0183 9.07774 16.2511 8.73805 15.4517 8.59441C13.3275 8.21248 11.6663 6.5462 11.2894 4.42193C11.1458 3.61076 10.8112 2.86211 10.3228 2.21655C9.83605 2.86887 9.49806 3.63442 9.35442 4.43376C8.97249 6.55802 7.3062 8.21924 5.18194 8.5961C4.37077 8.73975 3.62381 9.07266 2.97656 9.56106C3.62888 10.0478 4.39443 10.3841 5.19377 10.5294C7.31803 10.9113 8.97925 12.5776 9.35611 14.7036C9.49975 15.5164 9.83098 16.2634 10.3177 16.9106C10.8044 16.2583 11.1424 15.4911 11.2877 14.6917C11.6696 12.5675 13.3359 10.9063 15.4619 10.5294L15.4636 10.5277Z"></path></g><g id="exp2_2_rotated"><use href="#exp2_2" transform="rotate(45, 10, 10)"></use></g><pattern id="exp2_2_p" viewBox="0 0 40 40" width="40" height="40" patternUnits="userSpaceOnUse"><use href="#exp2_2" x="-19.8" y="-19.8"></use><use href="#exp2_2_rotated" x="-19.8" y="0"></use><use href="#exp2_2" x="-19.8" y="19.8"></use><use href="#exp2_2_rotated" x="-19.8" y="39.6"></use><use href="#exp2_2_rotated" x="0" y="-19.8"></use><use href="#exp2_2" x="0" y="0"></use><use href="#exp2_2_rotated" x="0" y="19.8"></use><use href="#exp2_2" x="0" y="39.6"></use><use href="#exp2_2" x="19.8" y="-19.8"></use><use href="#exp2_2_rotated" x="19.8" y="0"></use><use href="#exp2_2" x="19.8" y="19.8"></use><use href="#exp2_2_rotated" x="19.8" y="39.6"></use><use href="#exp2_2_rotated" x="39.6" y="-19.8"></use><use href="#exp2_2" x="39.6" y="0"></use><use href="#exp2_2_rotated" x="39.6" y="19.8"></use><use href="#exp2_2" x="39.6" y="39.6"></use></pattern></defs><rect width="297" height="210" x="0" y="0" fill="url(#exp2_2_p)"></rect></svg>