<svg xmlns="http://www.w3.org/2000/svg" width="297" height="210" viewBox="0 0 297 210"><rect width="297" height="210" fill="white"></rect><rect width="297" height="210" fill="#cd1f00" opacity="0.8"></rect><defs><path id="exp1_3" d="M0 19.5853V26.1517C0 26.3738 0.0113365 26.5959 0.0170051 26.818H0V66C21.535 66 39 48.4592 39 26.818H38.9717C38.9773 26.5959 38.9887 26.3738 38.9887 26.1517V19.5853C38.9887 8.77039 30.259 0 19.4943 0C8.72966 0 0 8.77039 0 19.5853Z"></path></defs><use href="#exp1_3" x="0" y="0" transform-origin="0 0" transform="rotate(0 19.5 33) translate(-11.976937204767902 9.708832933388525)" opacity="1"></use><use href="#exp1_3" x="0" y="60" transform-origin="0 60" transform="rotate(270 19.5 33) translate(-12.535022527717661 -14.177814980757562)" opacity="0.4"></use><use href="#exp1_3" x="0" y="120" transform-origin="0 120" transform="rotate(90 19.5 33) translate(-2.1065922463654 12.168898150208008)" opacity="1"></use><use href="#exp1_3" x="0" y="180" transform-origin="0 180" transform="rotate(270 19.5 33) translate(-8.441968682138615 12.095971906318894)" opacity="0.4"></use><use href="#exp1_3" x="0" y="240" transform-origin="0 240" transform="rotate(90 19.5 33) translate(0.48578706825669293 -3.378406575636486)" opacity="0.4"></use><use href="#exp1_3" x="0" y="300" transform-origin="0 300" transform="rotate(90 19.5 33) translate(-11.557971525350698 -7.711996442597066)" opacity="1"></use><use href="#exp1_3" x="0" y="360" transform-origin="0 360" transform="rotate(180 19.5 33) translate(-5.2867048761094075 -18.591913053436244)" opacity="1"></use><use href="#exp1_3" x="70" y="0" transform-origin="70 0" transform="rotate(90 19.5 33) translate(-7.35001026416198 3.7362599046466514)" opacity="1"></use><use href="#exp1_3" x="70" y="60" transform-origin="70 60" transform="rotate(0 19.5 33) translate(6.023695225428796 -12.627185266632905)" opacity="1"></use><use href="#exp1_3" x="70" y="120" transform-origin="70 120" transform="rotate(270 19.5 33) translate(-12.970097088180525 -4.649758244930741)" opacity="0.4"></use><use href="#exp1_3" x="70" y="180" transform-origin="70 180" transform="rotate(180 19.5 33) translate(-3.669501647465756 -1.7996301172582925)" opacity="1"></use><use href="#exp1_3" x="70" y="240" transform-origin="70 240" transform="rotate(90 19.5 33) translate(9.532543636661845 -11.248131630910734)" opacity="1"></use><use href="#exp1_3" x="70" y="300" transform-origin="70 300" transform="rotate(270 19.5 33) translate(-1.3176331916016544 -1.9285775540622083)" opacity="1"></use><use href="#exp1_3" x="70" y="360" transform-origin="70 360" transform="rotate(270 19.5 33) translate(-6.3187200802758285 -4.88434643450892)" opacity="1"></use><use href="#exp1_3" x="140" y="0" transform-origin="140 0" transform="rotate(0 19.5 33) translate(-9.87542944432263 -0.10963001224030577)" opacity="1"></use><use href="#exp1_3" x="140" y="60" transform-origin="140 60" transform="rotate(90 19.5 33) translate(3.353831587454657 -8.072352786432466)" opacity="0.4"></use><use href="#exp1_3" x="140" y="120" transform-origin="140 120" transform="rotate(90 19.5 33) translate(12.680560926560904 21.969745833866767)" opacity="1"></use><use href="#exp1_3" x="140" y="180" transform-origin="140 180" transform="rotate(270 19.5 33) translate(1.4394795722539282 8.370016352451533)" opacity="1"></use><use href="#exp1_3" x="140" y="240" transform-origin="140 240" transform="rotate(180 19.5 33) translate(-6.416133766330441 7.933992945394653)" opacity="0.4"></use><use href="#exp1_3" x="140" y="300" transform-origin="140 300" transform="rotate(0 19.5 33) translate(-3.407299015547393 -5.8582642861208925)" opacity="0.4"></use><use href="#exp1_3" x="140" y="360" transform-origin="140 360" transform="rotate(0 19.5 33) translate(0.5833141598815601 2.4301384354780744)" opacity="1"></use><use href="#exp1_3" x="210" y="0" transform-origin="210 0" transform="rotate(270 19.5 33) translate(5.870182204722369 -4.116229766826166)" opacity="0.4"></use><use href="#exp1_3" x="210" y="60" transform-origin="210 60" transform="rotate(180 19.5 33) translate(-8.443852485112561 -8.71673196904658)" opacity="1"></use><use href="#exp1_3" x="210" y="120" transform-origin="210 120" transform="rotate(0 19.5 33) translate(-1.0557641241764042 -0.8344786571943246)" opacity="1"></use><use href="#exp1_3" x="210" y="180" transform-origin="210 180" transform="rotate(270 19.5 33) translate(1.440779696389093 -21.930079153272377)" opacity="0.4"></use><use href="#exp1_3" x="210" y="240" transform-origin="210 240" transform="rotate(0 19.5 33) translate(-8.442656964009371 13.566473119906512)" opacity="1"></use><use href="#exp1_3" x="210" y="300" transform-origin="210 300" transform="rotate(90 19.5 33) translate(1.860490019982315 -13.409984070530228)" opacity="0.4"></use><use href="#exp1_3" x="210" y="360" transform-origin="210 360" transform="rotate(270 19.5 33) translate(-8.453038916490101 0.211215089002458)" opacity="0.4"></use><use href="#exp1_3" x="280" y="0" transform-origin="280 0" transform="rotate(180 19.5 33) translate(3.103403587248362 -17.056655540517063)" opacity="1"></use><use href="#exp1_3" x="280" y="60" transform-origin="280 60" transform="rotate(180 19.5 33) translate(-12.317024633215489 2.103115727221766)" opacity="0.4"></use><use href="#exp1_3" x="280" y="120" transform-origin="280 120" transform="rotate(0 19.5 33) translate(-2.4128894227001982 1.2992663632431487)" opacity="0.4"></use><use href="#exp1_3" x="280" y="180" transform-origin="280 180" transform="rotate(180 19.5 33) translate(3.285201471307424 7.661864141340004)" opacity="0.4"></use><use href="#exp1_3" x="280" y="240" transform-origin="280 240" transform="rotate(270 19.5 33) translate(-7.876879426584981 8.014250369843925)" opacity="0.4"></use><use href="#exp1_3" x="280" y="300" transform-origin="280 300" transform="rotate(180 19.5 33) translate(1.8200361279404618 13.265909934827441)" opacity="1"></use><use href="#exp1_3" x="280" y="360" transform-origin="280 360" transform="rotate(90 19.5 33) translate(-0.25519591985944423 -0.9985039614405657)" opacity="1"></use></svg>